# xmcd CD database file
#
# Track frame offsets:
#	150
#	16144
#	35661
#	54455
#	69923
#	86907
#	110002
#	127908
#	148680
#	164973
#	180816
#	196661
#	213393
#	235403
#	251458
#
# Disc length: 3564 seconds
#
# Revision: 0
# Processed by: cddbd v1.5.2PL0 Copyright (c) Steve Scherf et al.
# Submitted via: Feurio! 1.68 - http://www.feurio.com
#
DISCID=cf0dea0f
DTITLE=Angélique Kidjo - Djin Djin
DYEAR=1900
DGENRE=
TTITLE0=Ae Ae
TTITLE1=Djin Djin (ft. Alicia Keys and Branford Marsalis]
TTITLE2=Gimme Shelter (ft. Joss Stone)
TTITLE3=Salala (ft. Peter Gabrliel]
TTITLE4=Senamou [C'est l'Amour]
TTITLE5=Pearls (ft. Carlos Santana and Josh Groban]
TTITLE6=Sedjedo (ft. Ziggy Marley]
TTITLE7=Papa
TTITLE8=Arouna
TTITLE9=Awan N'la
TTITLE10=Emma
TTITLE11=Mama Golo Papa
TTITLE12=Lonlon [Ravel's Bolero]
TTITLE13=Arouna [ft. Joy Denalane] Bonus Track
TTITLE14=Emma [ft. Carmen Consoli] Bonus Track
EXTD=
EXTT0=
EXTT1=
EXTT2=
EXTT3=
EXTT4=
EXTT5=
EXTT6=
EXTT7=
EXTT8=
EXTT9=
EXTT10=
EXTT11=
EXTT12=
EXTT13=
EXTT14=
PLAYORDER=
